<svg xmlns="http://www.w3.org/2000/svg" width="15" height="15" viewBox="0 0 15 15"><defs><style>.a{fill:#00b592;}</style></defs><g transform="translate(-250 -193)"><path class="a" d="M252.777,201.994a14.454,14.454,0,0,1,.121-1.851h-2.626a6.418,6.418,0,0,0,0,3.7H252.9A14.453,14.453,0,0,1,252.777,201.994Z" transform="translate(0 -1.494)"/><path class="a" d="M265.648,201.994a14.456,14.456,0,0,1-.121,1.851h2.626a6.418,6.418,0,0,0,0-3.7h-2.626A14.456,14.456,0,0,1,265.648,201.994Z" transform="translate(-3.425 -1.494)"/><path class="a" d="M266.973,196.891a6.5,6.5,0,0,0-3.77-3.355,8.615,8.615,0,0,1,1.356,3.355Z" transform="translate(-2.607 -0.189)"/><path class="a" d="M250.979,207.286a6.5,6.5,0,0,0,3.77,3.355,8.614,8.614,0,0,1-1.356-3.355Z" transform="translate(-0.345 -2.988)"/><path class="a" d="M253.393,196.891a8.615,8.615,0,0,1,1.356-3.355,6.5,6.5,0,0,0-3.77,3.355Z" transform="translate(-0.345 -0.189)"/><path class="a" d="M261.133,207.286H256.17c.494,2.23,1.527,3.7,2.482,3.7S260.64,209.516,261.133,207.286Z" transform="translate(-1.152 -2.988)"/><path class="a" d="M264.559,207.286a8.615,8.615,0,0,1-1.356,3.355,6.5,6.5,0,0,0,3.77-3.355Z" transform="translate(-2.607 -2.988)"/><path class="a" d="M261.268,201.994a13.337,13.337,0,0,0-.129-1.851h-5.3a13.354,13.354,0,0,0,0,3.7h5.3A13.336,13.336,0,0,0,261.268,201.994Z" transform="translate(-0.991 -1.494)"/><path class="a" d="M256.17,196.7h4.963c-.494-2.23-1.527-3.7-2.482-3.7S256.664,194.473,256.17,196.7Z" transform="translate(-1.152)"/></g></svg>